<svg xmlns="http://www.w3.org/2000/svg" id="a" width="349.284" height="43.66" data-name="Brabant"><defs><style>.b{isolation:isolate}.d{stroke-width:0;fill:#fff}</style></defs><path d="M-.501.518h349.284V44.18H-.501V.518Z" style="stroke-width:0;fill:#d00"/><g class="b"><path d="M45.305 19.176h3.943v1.799a3.555 3.555 0 0 1 1.552-1.527c.592-.32 1.306-.443 2.045-.443.099 0 .271.024.789.049v3.721c-.197-.098-.739-.394-1.7-.394-.518 0-1.232.073-1.799.591-.838.765-.887 1.923-.887 2.514v4.707h-3.943V19.177Z" class="d"/></g><g class="b"><path d="M65.981 28.738c-1.454 1.43-3.154 1.824-4.929 1.824-1.602 0-3.376-.321-4.904-1.824-1.208-1.183-1.701-2.587-1.701-4.065 0-1.972.887-3.253 1.701-4.042.912-.887 2.514-1.823 4.904-1.823 2.439 0 4.017.961 4.929 1.823.813.789 1.7 2.07 1.7 4.042 0 1.479-.493 2.883-1.7 4.065Zm-6.678-5.865a2.544 2.544 0 0 0-.764 1.8c0 .665.32 1.306.764 1.749a2.515 2.515 0 0 0 1.774.739c.641 0 1.282-.271 1.75-.739a2.428 2.428 0 0 0 .764-1.749c0-.592-.271-1.307-.764-1.8-.444-.419-1.134-.714-1.75-.714-.641 0-1.331.295-1.774.714Z" class="d"/></g><g class="b"><path d="m72.758 19.176 2.637 5.644 2.686-5.644h4.387l-5.742 11.016H74.04l-5.692-11.016h4.411ZM85.795 12.375c1.232 0 2.218.985 2.218 2.218s-.985 2.218-2.218 2.218-2.218-.986-2.218-2.218.986-2.218 2.218-2.218Zm1.972 6.801v11.016h-3.943V19.176h3.943ZM90.453 19.176h3.943v1.38c1.084-1.429 2.538-1.626 3.499-1.626 1.134 0 2.341.271 3.253 1.183.937.937 1.035 1.873 1.035 3.081v6.999H98.24v-5.569c0-.641.024-1.602-.493-2.144-.37-.395-.863-.469-1.257-.469-.616 0-1.134.222-1.454.518-.395.37-.641 1.084-.641 1.75v5.914h-3.943V19.177ZM113.198 29.946c-1.06.518-1.922.616-2.735.616-2.144 0-3.548-.912-4.337-1.676-1.035-1.011-1.701-2.489-1.701-4.116a6 6 0 0 1 1.774-4.263c1.035-.985 2.563-1.676 4.436-1.676.69 0 1.577.123 2.563.616v3.302c-.518-.369-1.208-.715-2.045-.715-.937 0-1.528.37-1.922.765-.542.542-.764 1.257-.764 1.898 0 .616.222 1.33.69 1.848.37.395 1.011.838 2.021.838.567 0 1.306-.123 2.021-.739v3.303ZM117.413 12.375c1.232 0 2.218.985 2.218 2.218s-.985 2.218-2.218 2.218-2.218-.986-2.218-2.218.986-2.218 2.218-2.218Zm1.971 6.801v11.016h-3.943V19.176h3.943ZM133.751 25.412h-8.206c0 .591.222 1.38.69 1.848.247.246.739.542 1.626.542.099 0 .789-.024 1.281-.296.247-.147.518-.394.69-.739h3.771a4.954 4.954 0 0 1-1.331 2.268c-.813.788-2.095 1.528-4.485 1.528-1.454 0-3.204-.321-4.559-1.676-.715-.715-1.626-2.07-1.626-4.165 0-1.849.69-3.328 1.651-4.264.912-.887 2.341-1.602 4.51-1.602 1.281 0 2.933.271 4.239 1.503 1.552 1.479 1.75 3.402 1.75 4.634v.419Zm-3.623-2.267c-.099-.419-.345-.887-.641-1.183-.518-.518-1.232-.592-1.626-.592-.666 0-1.183.173-1.602.592a2.246 2.246 0 0 0-.591 1.183h4.46ZM142.13 30.192V13.755h4.263l7.861 10.054V13.755h4.264v16.437h-4.264l-7.861-10.055v10.055h-4.263ZM172.688 28.738c-1.454 1.43-3.154 1.824-4.929 1.824-1.602 0-3.376-.321-4.904-1.824-1.208-1.183-1.701-2.587-1.701-4.065 0-1.972.887-3.253 1.701-4.042.912-.887 2.513-1.823 4.904-1.823 2.439 0 4.017.961 4.929 1.823.813.789 1.7 2.07 1.7 4.042 0 1.479-.493 2.883-1.7 4.065Zm-6.678-5.865a2.544 2.544 0 0 0-.764 1.8c0 .665.32 1.306.764 1.749a2.515 2.515 0 0 0 1.774.739c.641 0 1.282-.271 1.75-.739a2.428 2.428 0 0 0 .764-1.749c0-.592-.271-1.307-.764-1.8-.444-.419-1.134-.714-1.75-.714-.641 0-1.331.295-1.774.714ZM187.745 28.738c-1.454 1.43-3.154 1.824-4.929 1.824-1.603 0-3.376-.321-4.904-1.824-1.207-1.183-1.7-2.587-1.7-4.065 0-1.972.887-3.253 1.7-4.042.912-.887 2.514-1.823 4.904-1.823 2.439 0 4.017.961 4.929 1.823.812.789 1.7 2.07 1.7 4.042 0 1.479-.493 2.883-1.7 4.065Zm-6.679-5.865a2.544 2.544 0 0 0-.764 1.8c0 .665.32 1.306.764 1.749a2.517 2.517 0 0 0 1.774.739c.641 0 1.281-.271 1.75-.739a2.432 2.432 0 0 0 .764-1.749c0-.592-.271-1.307-.764-1.8-.444-.419-1.134-.714-1.75-.714-.641 0-1.331.295-1.774.714ZM191.713 19.176h3.943v1.799a3.555 3.555 0 0 1 1.552-1.527c.592-.32 1.307-.443 2.046-.443.099 0 .271.024.788.049v3.721c-.197-.098-.739-.394-1.7-.394-.518 0-1.232.073-1.799.591-.838.765-.887 1.923-.887 2.514v4.707h-3.943V19.177Z" class="d"/></g><g class="b"><path d="M214.261 30.192h-3.943v-1.207c-1.108 1.429-2.562 1.577-3.326 1.577-1.577 0-2.834-.518-3.869-1.528-1.109-1.084-1.774-2.637-1.774-4.387 0-1.874.788-3.401 1.799-4.362 1.084-1.035 2.538-1.479 3.894-1.479 1.503 0 2.562.665 3.277 1.429v-8.009h3.943v17.965Zm-4.658-3.647a2.638 2.638 0 0 0 .838-1.872c0-.616-.345-1.355-.739-1.775-.443-.469-1.06-.739-1.799-.739a2.41 2.41 0 0 0-1.749.714 2.708 2.708 0 0 0-.765 1.874c0 .567.247 1.208.765 1.726a2.446 2.446 0 0 0 1.749.739c.641 0 1.281-.296 1.7-.666ZM217.316 21.936h6.235v3.279h-6.235v-3.279Z" class="d"/></g><g class="b"><path d="M227.027 30.192V13.755h6.357c1.183 0 2.588.172 3.598 1.281.567.616 1.011 1.626 1.011 3.08a4.25 4.25 0 0 1-.469 2.021c-.345.641-.714 1.011-1.33 1.282.862.099 1.725.492 2.242.985.665.641 1.109 1.701 1.109 3.007 0 1.552-.592 2.611-1.208 3.228-.887.912-2.439 1.553-4.46 1.553h-6.851Zm4.263-9.956h.789c.443 0 1.183-.049 1.626-.518.271-.271.395-.714.395-1.084 0-.419-.147-.838-.395-1.108-.271-.271-.788-.493-1.626-.493h-.789v3.203Zm0 6.629h.961c1.184 0 2.169-.123 2.637-.665.197-.222.346-.592.346-1.06 0-.518-.173-.937-.419-1.183-.518-.518-1.577-.542-2.637-.542h-.888v3.449ZM241.888 19.176h3.942v1.799a3.557 3.557 0 0 1 1.553-1.527c.592-.32 1.306-.443 2.045-.443.099 0 .271.024.789.049v3.721c-.197-.098-.739-.394-1.7-.394-.518 0-1.232.073-1.799.591-.838.765-.888 1.923-.888 2.514v4.707h-3.942V19.177ZM260.493 19.176h3.942v11.016h-3.942v-1.207c-.912 1.256-2.342 1.577-3.426 1.577-1.183 0-2.637-.346-3.968-1.75-1.06-1.134-1.577-2.391-1.577-4.042 0-2.07.813-3.524 1.701-4.412.936-.936 2.39-1.552 3.967-1.552 1.774 0 2.834.911 3.303 1.429v-1.06Zm-4.14 3.697a2.58 2.58 0 0 0-.788 1.8c0 .641.271 1.33.764 1.799.419.394 1.109.739 1.774.739.641 0 1.281-.271 1.774-.765a2.39 2.39 0 0 0 .739-1.773c0-.518-.148-1.208-.764-1.8-.37-.345-.937-.714-1.774-.714-.493 0-1.158.172-1.726.714ZM271.09 12.227v8.009c.715-.764 1.774-1.429 3.277-1.429 1.355 0 2.81.443 3.894 1.479 1.011.961 1.799 2.488 1.799 4.362 0 1.75-.665 3.303-1.773 4.387-1.035 1.011-2.292 1.528-3.869 1.528-.764 0-2.218-.148-3.327-1.577v1.207h-3.942V12.227h3.942Zm4.165 14.245c.518-.518.764-1.158.764-1.726 0-.739-.32-1.429-.764-1.874a2.415 2.415 0 0 0-1.75-.714c-.739 0-1.355.271-1.799.739-.395.419-.739 1.159-.739 1.775 0 .665.32 1.404.838 1.872.419.37 1.06.666 1.7.666.566 0 1.208-.197 1.75-.739ZM290.854 19.176h3.942v11.016h-3.942v-1.207c-.912 1.256-2.342 1.577-3.426 1.577-1.183 0-2.637-.346-3.968-1.75-1.06-1.134-1.577-2.391-1.577-4.042 0-2.07.813-3.524 1.701-4.412.936-.936 2.39-1.552 3.967-1.552 1.774 0 2.834.911 3.303 1.429v-1.06Zm-4.14 3.697a2.58 2.58 0 0 0-.788 1.8c0 .641.271 1.33.764 1.799.419.394 1.109.739 1.774.739.641 0 1.281-.271 1.774-.765a2.39 2.39 0 0 0 .739-1.773c0-.518-.148-1.208-.764-1.8-.37-.345-.937-.714-1.774-.714-.493 0-1.158.172-1.726.714ZM297.509 19.176h3.942v1.38c1.084-1.429 2.538-1.626 3.499-1.626 1.134 0 2.342.271 3.253 1.183.937.937 1.035 1.873 1.035 3.081v6.999h-3.942v-5.569c0-.641.024-1.602-.493-2.144-.37-.395-.862-.469-1.257-.469-.616 0-1.134.222-1.454.518-.395.37-.641 1.084-.641 1.75v5.914h-3.942V19.177ZM316.287 22.405v7.788h-3.943v-7.788h-1.257v-3.229h1.257v-3.622h3.943v3.622h2.242v3.229h-2.242Z" class="d"/></g><g class="b"><path d="M35.176 24.746v5.446h-4.263V13.755h6.801c1.429 0 2.908.271 4.165 1.479 1.282 1.231 1.528 2.612 1.528 3.992 0 1.306-.172 2.834-1.454 4.091-1.282 1.257-2.81 1.429-4.091 1.429h-2.686Zm0-3.451h1.429c.444 0 1.281-.049 1.799-.518.518-.443.542-1.108.542-1.503 0-.443-.049-1.035-.493-1.479-.493-.518-1.281-.592-1.823-.592h-1.454v4.091Z" class="d"/></g></svg>