<svg width="200" height="36" viewBox="0 0 200 36" fill="none" xmlns="http://www.w3.org/2000/svg">
<path d="M56.0755 6.87486C60.2753 6.87486 62.9343 8.772 62.9343 13.9912C62.9343 19.2104 60.2753 21.0827 56.0755 21.0827H53.226C52.5467 21.0827 52 20.5276 52 19.8566V8.10096C52 7.42992 52.5467 6.87486 53.226 6.87486H56.0755ZM54.452 18.8873H56.0755C58.7759 18.8873 60.3995 17.6612 60.3995 13.9912C60.3995 10.3212 58.7759 9.07024 56.0755 9.07024H54.452V18.8873Z" fill="#303635"/>
<path d="M67.3411 15.5487V20.0223C67.3411 20.7016 66.7944 21.2484 66.1152 21.2484C65.4359 21.2484 64.8892 20.7016 64.8892 20.0223V8.10096C64.8892 7.42163 65.4359 6.87486 66.1152 6.87486H70.141C72.6095 6.87486 74.5726 8.25008 74.5726 11.1993C74.5726 14.1486 72.6509 15.5487 70.141 15.5487H67.3329H67.3411ZM67.3411 9.07024V13.3533H69.9587C71.2675 13.3533 72.0462 12.5746 72.0462 11.1993C72.0462 9.82412 71.2427 9.07024 69.9587 9.07024H67.3411Z" fill="#303635"/>
<path d="M75.9891 13.9829C75.9891 8.97911 78.4161 6.57662 82.6822 6.57662C86.9482 6.57662 89.3752 8.97911 89.3752 13.9829C89.3752 18.9867 86.9482 21.3727 82.6822 21.3727C78.4161 21.3727 75.9891 18.9287 75.9891 13.9829ZM78.5238 13.9829C78.5238 17.4624 79.8989 19.1773 82.6822 19.1773C85.4654 19.1773 86.8405 17.4707 86.8405 13.9829C86.8405 10.4952 85.4737 8.77199 82.6822 8.77199C79.8906 8.77199 78.5238 10.4786 78.5238 13.9829Z" fill="#303635"/>
<path d="M95.5713 13.9829C95.5713 8.97911 97.9735 6.57662 102.173 6.57662C104.725 6.57662 106.398 7.58732 107.259 8.85484C107.425 9.11166 107.491 9.31877 107.491 9.55073C107.491 10.1638 106.986 10.6691 106.348 10.6691C106.05 10.6691 105.76 10.5449 105.487 10.2466C104.625 9.29392 103.714 8.77199 102.173 8.77199C99.3652 8.77199 98.0978 10.5034 98.0978 13.9829C98.0978 17.6778 99.3652 19.1773 102.173 19.1773C103.739 19.1773 104.575 18.821 105.594 17.7855C105.934 17.4458 106.207 17.3215 106.506 17.3215C107.135 17.3215 107.649 17.8269 107.649 18.4648C107.649 18.7216 107.566 18.9287 107.442 19.0944C106.431 20.4448 104.443 21.3727 102.19 21.3727C97.9901 21.3727 95.5879 19.1607 95.5879 13.9829" fill="#303635"/>
<path d="M113.596 21.3561C110.747 21.3561 108.974 19.7323 108.974 16.286C108.974 12.8397 110.747 11.1993 113.596 11.1993C116.446 11.1993 118.218 12.8231 118.218 16.286C118.218 19.7489 116.446 21.3561 113.596 21.3561ZM113.596 13.1462C112.072 13.1462 111.277 14.1983 111.277 16.2943C111.277 18.3903 112.08 19.4175 113.596 19.4175C115.112 19.4175 115.916 18.3654 115.916 16.2943C115.916 14.2232 115.112 13.1462 113.596 13.1462Z" fill="#303635"/>
<path d="M128.407 14.8694V20.1466C128.407 20.7762 127.902 21.2484 127.264 21.2484C126.585 21.2484 126.121 20.7845 126.121 20.1466V15.2919C126.121 14.0906 125.641 13.2622 124.265 13.2622C122.683 13.2622 122.153 14.19 122.153 15.4327V20.1383C122.153 20.7679 121.664 21.2401 121.01 21.2401C120.356 21.2401 119.867 20.7762 119.867 20.1383V12.4586C119.867 11.829 120.372 11.3153 121.01 11.3153C121.648 11.3153 122.153 11.8207 122.153 12.4586C122.551 11.8455 123.437 11.1911 124.854 11.1911C127.728 11.1911 128.399 13.0302 128.399 14.8611" fill="#303635"/>
<path d="M132.565 13.9829C132.565 15.5487 137.759 14.8279 137.759 18.3074C137.759 20.2957 136.069 21.3064 133.899 21.3064C132.085 21.3064 130.693 20.4779 130.163 19.8318C129.998 19.6164 129.906 19.4341 129.906 19.1773C129.906 18.6305 130.37 18.1666 130.917 18.1666C131.132 18.1666 131.339 18.2328 131.571 18.4151C132.143 18.879 132.839 19.285 133.891 19.285C134.843 19.285 135.448 19.0282 135.448 18.44C135.448 16.7334 130.279 17.6198 130.279 14.0326C130.279 12.1355 131.861 11.1993 133.8 11.1993C135.299 11.1993 136.624 11.771 137.221 12.5083C137.345 12.674 137.428 12.8231 137.428 13.1379C137.428 13.6847 136.964 14.1486 136.417 14.1486C136.119 14.1486 135.929 14.0244 135.697 13.8504C135.233 13.5107 134.661 13.1711 133.8 13.1711C133.021 13.1711 132.557 13.4444 132.557 13.9746" fill="#303635"/>
<path d="M141.553 12.4669V17.3878C141.553 18.3571 141.893 19.285 143.45 19.285C145.007 19.285 145.33 18.3571 145.33 17.3878V12.4669C145.33 11.8373 145.836 11.3236 146.474 11.3236C147.111 11.3236 147.617 11.829 147.617 12.4669V17.3878C147.617 19.4589 146.838 21.3561 143.458 21.3561C140.079 21.3561 139.283 19.4589 139.283 17.3878V12.4669C139.283 11.8373 139.789 11.3236 140.427 11.3236C141.064 11.3236 141.57 11.829 141.57 12.4669" fill="#303635"/>
<path d="M151.999 7.18968V18.7548C151.999 19.0116 152.255 19.1359 152.396 19.1359C152.984 19.1359 153.448 19.5998 153.448 20.188C153.448 20.7762 152.984 21.2401 152.396 21.2401C150.748 21.2401 149.712 20.3122 149.712 18.5394V7.18139C149.712 6.55177 150.218 6.03814 150.856 6.03814C151.493 6.03814 151.999 6.54349 151.999 7.18139" fill="#303635"/>
<path d="M155.478 9.72473C155.478 9.11168 155.983 8.60633 156.596 8.60633C157.209 8.60633 157.714 9.11168 157.714 9.72473V11.4976H158.667C159.197 11.4976 159.619 11.9201 159.619 12.4503C159.619 12.9805 159.197 13.403 158.667 13.403H157.714V18.5145C157.714 18.995 158.137 19.2767 158.518 19.2767C159.064 19.2767 159.512 19.7158 159.512 20.2708C159.512 20.8259 159.064 21.265 158.518 21.265C156.637 21.265 155.478 20.0637 155.478 18.3985V13.4196H154.989C154.459 13.4196 154.036 12.9971 154.036 12.4669C154.036 11.9367 154.459 11.5142 154.989 11.5142H155.478V9.7413V9.72473Z" fill="#303635"/>
<path d="M162.867 14.0326C162.651 14.1818 162.486 14.2397 162.237 14.2397C161.69 14.2397 161.243 13.7924 161.243 13.2456C161.243 13.0136 161.326 12.7568 161.516 12.5497C162.105 11.8952 163.165 11.1993 164.979 11.1993C167.597 11.1993 169.154 12.4834 169.154 14.7285V20.13C169.154 20.743 168.649 21.2484 168.036 21.2484C167.423 21.2484 166.917 20.743 166.917 20.13C166.346 21.0413 165.418 21.3561 164.151 21.3561C162.08 21.3561 160.713 20.072 160.713 18.1666C160.713 16.2612 162.295 15.1925 164.134 15.1925H166.901V14.8114C166.901 13.8587 166.205 13.229 164.979 13.229C164.051 13.229 163.397 13.6516 162.867 14.0326ZM166.892 17.5535V16.9653H164.424C163.496 16.9653 162.991 17.4127 162.991 18.1666C162.991 18.9702 163.562 19.4507 164.739 19.4507C165.857 19.4507 166.892 18.7382 166.892 17.5535Z" fill="#303635"/>
<path d="M179.682 14.8694V20.1466C179.682 20.7762 179.177 21.2484 178.539 21.2484C177.868 21.2484 177.396 20.7845 177.396 20.1466V15.2919C177.396 14.0906 176.915 13.2622 175.54 13.2622C173.958 13.2622 173.428 14.19 173.428 15.4327V20.1383C173.428 20.7679 172.939 21.2401 172.285 21.2401C171.631 21.2401 171.142 20.7762 171.142 20.1383V12.4586C171.142 11.829 171.647 11.3153 172.285 11.3153C172.923 11.3153 173.428 11.8207 173.428 12.4586C173.826 11.8455 174.712 11.1911 176.129 11.1911C178.995 11.1911 179.674 13.0302 179.674 14.8611" fill="#303635"/>
<path d="M185.82 11.1993C187.759 11.1993 188.877 12.1686 189.258 12.6574C189.424 12.8894 189.49 13.0551 189.49 13.3119C189.49 13.8835 189.042 14.3226 188.479 14.3226C188.14 14.3226 187.891 14.1735 187.701 13.9664C187.427 13.6681 186.881 13.1462 185.82 13.1462C184.346 13.1462 183.542 14.2895 183.542 16.2694C183.542 18.2494 184.346 19.4175 185.82 19.4175C186.789 19.4175 187.427 18.9287 187.908 18.5725C188.14 18.4068 188.33 18.3654 188.537 18.3654C189.109 18.3654 189.548 18.8128 189.548 19.3761C189.548 19.6743 189.44 19.9229 189.192 20.1548C188.703 20.5939 187.543 21.3561 185.812 21.3561C182.946 21.3561 181.231 19.7075 181.231 16.2694C181.231 12.8314 182.938 11.2076 185.812 11.2076" fill="#303635"/>
<path d="M193.739 20.4034L190.492 12.9059C190.451 12.7982 190.409 12.6574 190.409 12.4669C190.409 11.8373 190.915 11.3236 191.552 11.3236C192.19 11.3236 192.505 11.7627 192.604 12.0444L194.924 17.9098L197.243 12.0444C197.351 11.771 197.666 11.3236 198.295 11.3236C198.925 11.3236 199.438 11.829 199.438 12.4669C199.438 12.6574 199.397 12.8065 199.355 12.9059L195.429 21.7703C194.501 23.8414 193.168 25.3161 191.064 25.3161C190.451 25.3161 189.97 24.8687 189.97 24.2639C189.97 23.6592 190.451 23.2118 191.064 23.2118C192.414 23.2118 193.043 22.1348 193.747 20.4034" fill="#303635"/>
<path d="M64.9554 33.5591V25.7386H70.613V26.6581H65.9908V29.0523H70.3231V29.9719H65.9908V32.6395H70.7953V33.5591H64.9554Z" fill="#B4CE37"/>
<path d="M71.864 33.5591L73.9348 30.6098L72.0213 27.8842H73.2224L74.0922 29.218C74.2579 29.4666 74.3904 29.682 74.4898 29.8559C74.6472 29.624 74.788 29.4086 74.9206 29.2346L75.8732 27.8925H77.0163L75.0614 30.5601L77.1654 33.5591H75.9891L74.8295 31.7945L74.523 31.3223L73.0319 33.5591H71.8722H71.864Z" fill="#B4CE37"/>
<path d="M78.3748 35.7296V27.8925H79.2528V28.6298C79.4599 28.3399 79.6918 28.1245 79.9486 27.9837C80.2054 27.8428 80.5202 27.7683 80.893 27.7683C81.3734 27.7683 81.8041 27.8925 82.1769 28.1411C82.5497 28.3896 82.823 28.7458 83.0135 29.1932C83.2041 29.6488 83.2952 30.1459 83.2952 30.6844C83.2952 31.2643 83.1875 31.7862 82.9804 32.2501C82.7733 32.7141 82.4668 33.0703 82.0692 33.3188C81.6716 33.5674 81.2574 33.6916 80.8184 33.6916C80.4953 33.6916 80.2137 33.6254 79.9569 33.4928C79.7001 33.3603 79.493 33.1863 79.3274 32.9792V35.7379H78.3665L78.3748 35.7296ZM79.2445 30.7589C79.2445 31.488 79.3936 32.0265 79.6836 32.3744C79.9818 32.7224 80.338 32.8963 80.7604 32.8963C81.1829 32.8963 81.5556 32.7141 81.8538 32.3578C82.1603 31.9933 82.3094 31.4383 82.3094 30.6761C82.3094 29.9139 82.1603 29.4169 81.8621 29.0523C81.5639 28.6961 81.2077 28.5139 80.7936 28.5139C80.3794 28.5139 80.0232 28.7044 79.7084 29.0855C79.3936 29.4666 79.2363 30.0216 79.2363 30.7507" fill="#B4CE37"/>
<path d="M88.7375 31.7365L89.7315 31.8608C89.5741 32.4407 89.2842 32.888 88.8617 33.2111C88.4393 33.5342 87.9008 33.6916 87.2381 33.6916C86.4098 33.6916 85.7554 33.4348 85.2667 32.9295C84.7779 32.4158 84.5377 31.7034 84.5377 30.7838C84.5377 29.8642 84.7862 29.0938 85.275 28.5636C85.7637 28.0334 86.4015 27.7765 87.1884 27.7765C87.9754 27.7765 88.5635 28.0334 89.044 28.547C89.5244 29.0606 89.7646 29.7897 89.7646 30.7258C89.7646 30.7838 89.7646 30.8666 89.7646 30.9826H85.54C85.5732 31.604 85.7554 32.0845 86.0702 32.4158C86.3849 32.7472 86.7826 32.9129 87.2547 32.9129C87.6109 32.9129 87.9091 32.8218 88.1576 32.6395C88.4061 32.4573 88.6049 32.159 88.7457 31.7531M85.5814 30.179H88.7457C88.7043 29.6985 88.5801 29.3423 88.3813 29.102C88.0748 28.7292 87.6772 28.547 87.1884 28.547C86.7494 28.547 86.3767 28.6961 86.0785 28.9944C85.7802 29.2926 85.6146 29.682 85.5814 30.179Z" fill="#B4CE37"/>
<path d="M91.3302 33.5591V27.8925H92.1917V28.7541C92.4153 28.3482 92.6141 28.0913 92.8047 27.9588C92.9952 27.8345 93.194 27.7683 93.4176 27.7683C93.7407 27.7683 94.072 27.8677 94.4034 28.0748L94.072 28.9695C93.8401 28.8287 93.5999 28.7624 93.3679 28.7624C93.1609 28.7624 92.9703 28.8287 92.8047 28.9529C92.639 29.0772 92.5147 29.2512 92.4485 29.4831C92.3408 29.8228 92.2911 30.1956 92.2911 30.6015V33.5674H91.3302V33.5591Z" fill="#B4CE37"/>
<path d="M97.4848 32.6975L97.6256 33.5425C97.3523 33.6005 97.1121 33.6254 96.8967 33.6254C96.5488 33.6254 96.2754 33.5674 96.0849 33.4597C95.8944 33.352 95.7618 33.2029 95.679 33.0289C95.5962 32.8466 95.563 32.4738 95.563 31.8939V28.6298H94.8589V27.8842H95.563V26.4842L96.5157 25.9043V27.8842H97.4848V28.6298H96.5157V31.9436C96.5157 32.217 96.5322 32.391 96.5653 32.4738C96.5985 32.5484 96.6565 32.6147 96.731 32.6644C96.8056 32.7141 96.9133 32.7306 97.0624 32.7306C97.17 32.7306 97.3109 32.7141 97.4848 32.6892" fill="#B4CE37"/>
<path d="M98.4457 31.8691L99.3983 31.7199C99.448 32.101 99.5971 32.391 99.8456 32.5981C100.086 32.7969 100.434 32.9046 100.864 32.9046C101.295 32.9046 101.635 32.8135 101.85 32.6312C102.066 32.449 102.173 32.2419 102.173 32.0016C102.173 31.7862 102.082 31.6122 101.892 31.488C101.759 31.4051 101.436 31.2974 100.906 31.1649C100.202 30.9909 99.7131 30.8335 99.4397 30.701C99.1664 30.5684 98.9593 30.3944 98.8185 30.1625C98.6776 29.9305 98.6114 29.682 98.6114 29.4003C98.6114 29.1518 98.6694 28.9115 98.7853 28.6961C98.9013 28.4807 99.0587 28.2985 99.2575 28.1576C99.4066 28.0499 99.6137 27.9505 99.8705 27.876C100.127 27.8014 100.401 27.76 100.699 27.76C101.146 27.76 101.535 27.8263 101.867 27.9505C102.206 28.0748 102.455 28.2488 102.612 28.4724C102.77 28.6878 102.886 28.9861 102.944 29.3506L102.008 29.4749C101.966 29.1849 101.842 28.9529 101.635 28.7955C101.428 28.6298 101.138 28.547 100.765 28.547C100.326 28.547 100.011 28.6216 99.8208 28.7707C99.6303 28.9198 99.5391 29.0855 99.5391 29.2843C99.5391 29.4086 99.5805 29.5246 99.6551 29.624C99.7379 29.7234 99.8539 29.8145 100.02 29.8808C100.119 29.9139 100.401 29.9968 100.873 30.1293C101.552 30.3116 102.024 30.4607 102.298 30.5767C102.563 30.6927 102.778 30.8584 102.927 31.082C103.076 31.3057 103.159 31.5791 103.159 31.9022C103.159 32.2253 103.068 32.5235 102.877 32.8052C102.687 33.0869 102.422 33.3106 102.066 33.4597C101.718 33.6171 101.312 33.6916 100.873 33.6916C100.136 33.6916 99.5723 33.5425 99.1912 33.236C98.8019 32.9295 98.5617 32.4738 98.454 31.8773" fill="#B4CE37"/>
<path d="M108.146 25.7386H109.107V26.8404H108.146V25.7386ZM108.146 27.8925H109.107V33.5591H108.146V27.8925Z" fill="#B4CE37"/>
<path d="M110.97 33.5591V27.8925H111.832V28.6961C112.246 28.0748 112.851 27.76 113.638 27.76C113.977 27.76 114.292 27.8263 114.582 27.9422C114.872 28.0665 115.079 28.2239 115.228 28.4227C115.369 28.6216 115.468 28.8618 115.526 29.1352C115.559 29.3092 115.576 29.624 115.576 30.0713V33.5591H114.615V30.1128C114.615 29.7234 114.582 29.4252 114.507 29.2346C114.433 29.0441 114.3 28.8867 114.11 28.7707C113.919 28.6547 113.696 28.5967 113.439 28.5967C113.033 28.5967 112.677 28.7293 112.379 28.9861C112.08 29.2429 111.931 29.74 111.931 30.4607V33.5591H110.97Z" fill="#B4CE37"/>
<path d="M121.018 33.5591V25.7386H123.71C124.315 25.7386 124.779 25.7717 125.102 25.8463C125.549 25.9457 125.93 26.1362 126.253 26.4096C126.668 26.7575 126.974 27.2049 127.181 27.7434C127.388 28.2819 127.488 28.9032 127.488 29.5991C127.488 30.1956 127.421 30.7175 127.281 31.1814C127.14 31.6371 126.966 32.0182 126.742 32.3247C126.527 32.6229 126.287 32.8632 126.03 33.0372C125.773 33.2111 125.458 33.3437 125.094 33.4265C124.729 33.5177 124.307 33.5591 123.835 33.5591H121.01H121.018ZM122.054 32.6395H123.727C124.241 32.6395 124.646 32.5898 124.936 32.4987C125.226 32.3993 125.466 32.2667 125.64 32.0927C125.889 31.8442 126.079 31.5211 126.212 31.1069C126.353 30.6927 126.419 30.1873 126.419 29.5991C126.419 28.7789 126.287 28.1493 126.013 27.7103C125.748 27.2712 125.417 26.9729 125.036 26.8238C124.762 26.7161 124.315 26.6664 123.694 26.6664H122.045V32.6395H122.054Z" fill="#B4CE37"/>
<path d="M132.889 32.8632C132.532 33.1697 132.193 33.3768 131.861 33.5011C131.53 33.6254 131.182 33.6834 130.801 33.6834C130.18 33.6834 129.699 33.5342 129.368 33.2277C129.037 32.9212 128.863 32.5318 128.863 32.0596C128.863 31.7862 128.929 31.5294 129.053 31.2974C129.178 31.0655 129.343 30.8832 129.55 30.7424C129.757 30.6015 129.989 30.5021 130.246 30.4276C130.437 30.3779 130.718 30.3282 131.099 30.2867C131.878 30.1956 132.45 30.0879 132.814 29.9554C132.814 29.8228 132.814 29.74 132.814 29.7068C132.814 29.3174 132.723 29.0441 132.541 28.8784C132.292 28.663 131.928 28.5553 131.447 28.5553C131 28.5553 130.66 28.6381 130.445 28.7955C130.23 28.9529 130.072 29.2346 129.965 29.6405L129.028 29.5163C129.111 29.1103 129.252 28.7872 129.451 28.5387C129.65 28.2902 129.931 28.0996 130.296 27.9671C130.669 27.8345 131.091 27.7683 131.58 27.7683C132.069 27.7683 132.458 27.8262 132.756 27.9422C133.054 28.0582 133.278 28.199 133.419 28.373C133.56 28.547 133.659 28.7624 133.717 29.0275C133.75 29.1932 133.767 29.4831 133.767 29.9139V31.198C133.767 32.0927 133.791 32.6561 133.825 32.8963C133.866 33.1366 133.949 33.3603 134.065 33.5757H133.063C132.963 33.3768 132.897 33.1449 132.872 32.8798M132.806 30.7175C132.458 30.8584 131.936 30.9826 131.232 31.082C130.834 31.14 130.561 31.2063 130.395 31.2726C130.23 31.3471 130.105 31.4466 130.014 31.5874C129.923 31.7282 129.882 31.8773 129.882 32.043C129.882 32.2998 129.981 32.5152 130.172 32.6809C130.362 32.8549 130.652 32.9378 131.025 32.9378C131.398 32.9378 131.721 32.8549 132.011 32.6975C132.3 32.5318 132.508 32.3164 132.648 32.0347C132.748 31.8194 132.806 31.4963 132.806 31.0737V30.7175Z" fill="#B4CE37"/>
<path d="M137.768 32.6975L137.908 33.5425C137.635 33.6005 137.395 33.6254 137.179 33.6254C136.831 33.6254 136.558 33.5674 136.368 33.4597C136.177 33.352 136.036 33.2029 135.962 33.0289C135.887 32.8466 135.846 32.4738 135.846 31.8939V28.6298H135.142V27.8842H135.846V26.4842L136.798 25.9043V27.8842H137.768V28.6298H136.798V31.9436C136.798 32.217 136.815 32.391 136.848 32.4738C136.881 32.5484 136.939 32.6147 137.014 32.6644C137.088 32.7141 137.196 32.7306 137.345 32.7306C137.453 32.7306 137.594 32.7141 137.768 32.6892" fill="#B4CE37"/>
<path d="M142.812 32.8632C142.456 33.1697 142.116 33.3768 141.785 33.5011C141.454 33.6254 141.106 33.6834 140.725 33.6834C140.103 33.6834 139.623 33.5342 139.292 33.2277C138.96 32.9212 138.786 32.5318 138.786 32.0596C138.786 31.7862 138.853 31.5294 138.977 31.2974C139.101 31.0655 139.267 30.8832 139.474 30.7424C139.681 30.6015 139.905 30.5021 140.161 30.4276C140.352 30.3779 140.634 30.3282 141.015 30.2867C141.793 30.1956 142.365 30.0879 142.729 29.9554C142.729 29.8228 142.729 29.74 142.729 29.7068C142.729 29.3174 142.638 29.0441 142.456 28.8784C142.207 28.663 141.843 28.5553 141.363 28.5553C140.915 28.5553 140.576 28.6381 140.36 28.7955C140.145 28.9529 139.987 29.2346 139.88 29.6405L138.944 29.5163C139.027 29.1103 139.167 28.7872 139.366 28.5387C139.565 28.2902 139.847 28.0996 140.211 27.9671C140.584 27.8345 141.006 27.7683 141.495 27.7683C141.984 27.7683 142.373 27.8262 142.671 27.9422C142.978 28.0582 143.193 28.199 143.342 28.373C143.483 28.547 143.583 28.7624 143.641 29.0275C143.674 29.1932 143.69 29.4831 143.69 29.9139V31.198C143.69 32.0927 143.707 32.6561 143.748 32.8963C143.79 33.1366 143.872 33.3603 143.988 33.5757H142.986C142.887 33.3768 142.82 33.1449 142.796 32.8798M142.729 30.7175C142.381 30.8584 141.86 30.9826 141.164 31.082C140.766 31.14 140.493 31.2063 140.327 31.2726C140.161 31.3471 140.037 31.4466 139.946 31.5874C139.855 31.7282 139.814 31.8773 139.814 32.043C139.814 32.2998 139.913 32.5152 140.103 32.6809C140.294 32.8549 140.584 32.9378 140.957 32.9378C141.329 32.9378 141.652 32.8549 141.942 32.6975C142.232 32.5318 142.439 32.3164 142.58 32.0347C142.68 31.8194 142.738 31.4963 142.738 31.0737V30.7175H142.729Z" fill="#B4CE37"/>
<path d="M149.157 33.5591V25.7386H152.106C152.628 25.7386 153.026 25.7634 153.299 25.8131C153.68 25.8794 154.003 26.0037 154.268 26.1776C154.533 26.3599 154.74 26.6084 154.898 26.9315C155.055 27.2546 155.138 27.6108 155.138 28.0002C155.138 28.663 154.923 29.2263 154.5 29.6902C154.078 30.1542 153.316 30.3779 152.206 30.3779H150.201V33.5591H149.166H149.157ZM150.193 29.4583H152.214C152.885 29.4583 153.357 29.334 153.639 29.0855C153.92 28.8369 154.061 28.489 154.061 28.0333C154.061 27.7103 153.978 27.4286 153.813 27.1966C153.647 26.9647 153.432 26.8072 153.158 26.7327C152.984 26.6913 152.661 26.6664 152.189 26.6664H150.184V29.4666L150.193 29.4583Z" fill="#B4CE37"/>
<path d="M156.72 33.5591V27.8925H157.582V28.7541C157.805 28.3482 158.004 28.0913 158.195 27.9588C158.377 27.8345 158.584 27.7683 158.808 27.7683C159.131 27.7683 159.462 27.8677 159.793 28.0748L159.462 28.9695C159.23 28.8287 158.99 28.7624 158.758 28.7624C158.551 28.7624 158.36 28.8287 158.195 28.9529C158.029 29.0772 157.905 29.2512 157.838 29.4831C157.731 29.8228 157.681 30.1956 157.681 30.6015V33.5674H156.72V33.5591Z" fill="#B4CE37"/>
<path d="M160.779 25.7386H161.74V26.8404H160.779V25.7386ZM160.779 27.8925H161.74V33.5591H160.779V27.8925Z" fill="#B4CE37"/>
<path d="M165.186 33.5591L163.032 27.8925H164.043L165.261 31.2891C165.393 31.6537 165.517 32.0347 165.625 32.4324C165.708 32.1342 165.832 31.7779 165.981 31.3554L167.24 27.8925H168.226L166.081 33.5591H165.186Z" fill="#B4CE37"/>
<path d="M173.18 32.8632C172.823 33.1697 172.484 33.3768 172.152 33.5011C171.821 33.6254 171.473 33.6834 171.092 33.6834C170.471 33.6834 169.99 33.5342 169.659 33.2277C169.328 32.9212 169.154 32.5318 169.154 32.0596C169.154 31.7862 169.22 31.5294 169.344 31.2974C169.469 31.0655 169.634 30.8832 169.841 30.7424C170.048 30.6015 170.28 30.5021 170.537 30.4276C170.728 30.3779 171.009 30.3282 171.39 30.2867C172.169 30.1956 172.741 30.0879 173.105 29.9554C173.105 29.8228 173.105 29.74 173.105 29.7068C173.105 29.3174 173.014 29.0441 172.832 28.8784C172.583 28.663 172.219 28.5553 171.738 28.5553C171.291 28.5553 170.951 28.6381 170.736 28.7955C170.521 28.9529 170.363 29.2346 170.255 29.6405L169.319 29.5163C169.402 29.1103 169.543 28.7872 169.742 28.5387C169.941 28.2902 170.222 28.0996 170.587 27.9671C170.96 27.8345 171.39 27.7683 171.871 27.7683C172.351 27.7683 172.749 27.8262 173.047 27.9422C173.353 28.0582 173.569 28.199 173.718 28.373C173.859 28.547 173.958 28.7624 174.016 29.0275C174.049 29.1932 174.066 29.4831 174.066 29.9139V31.198C174.066 32.0927 174.082 32.6561 174.124 32.8963C174.165 33.1366 174.248 33.3603 174.364 33.5757H173.362C173.262 33.3768 173.196 33.1449 173.171 32.8798M173.097 30.7175C172.749 30.8584 172.227 30.9826 171.523 31.082C171.125 31.14 170.852 31.2063 170.686 31.2726C170.521 31.3471 170.396 31.4466 170.305 31.5874C170.214 31.7282 170.173 31.8773 170.173 32.043C170.173 32.2998 170.272 32.5152 170.463 32.6809C170.653 32.8549 170.943 32.9378 171.316 32.9378C171.689 32.9378 172.012 32.8549 172.301 32.6975C172.591 32.5318 172.798 32.3164 172.939 32.0347C173.039 31.8194 173.097 31.4963 173.097 31.0737V30.7175Z" fill="#B4CE37"/>
<path d="M179.657 31.488L180.602 31.6122C180.502 32.2667 180.237 32.7721 179.806 33.1449C179.384 33.5094 178.862 33.6999 178.241 33.6999C177.462 33.6999 176.841 33.4431 176.369 32.9377C175.897 32.4324 175.665 31.7034 175.665 30.7589C175.665 30.1459 175.764 29.6157 175.971 29.1518C176.17 28.6961 176.485 28.3482 176.899 28.1162C177.313 27.8842 177.76 27.7683 178.249 27.7683C178.862 27.7683 179.367 27.9257 179.757 28.2322C180.146 28.547 180.395 28.9861 180.51 29.5577L179.574 29.6985C179.483 29.3174 179.326 29.0275 179.102 28.8369C178.879 28.6464 178.605 28.547 178.282 28.547C177.793 28.547 177.404 28.721 177.106 29.0689C176.799 29.4169 176.65 29.9636 176.65 30.7175C176.65 31.4714 176.799 32.0348 177.089 32.3744C177.379 32.7224 177.76 32.888 178.233 32.888C178.614 32.888 178.928 32.7721 179.177 32.5401C179.434 32.3081 179.591 31.9519 179.657 31.4714" fill="#B4CE37"/>
<path d="M181.786 35.7462L181.678 34.8432C181.886 34.9012 182.068 34.926 182.225 34.926C182.441 34.926 182.606 34.8929 182.739 34.8183C182.863 34.7438 182.971 34.6443 183.053 34.5201C183.111 34.429 183.211 34.1887 183.343 33.8076C183.36 33.7579 183.385 33.6751 183.426 33.5757L181.273 27.9008H182.308L183.484 31.1814C183.633 31.5957 183.774 32.0347 183.89 32.4904C183.998 32.0513 184.13 31.6205 184.288 31.198L185.497 27.8925H186.458L184.304 33.6585C184.072 34.2798 183.89 34.7106 183.766 34.9426C183.592 35.2574 183.401 35.4894 183.178 35.6385C182.954 35.7876 182.697 35.8622 182.391 35.8622C182.209 35.8622 182.001 35.8207 181.77 35.7462" fill="#B4CE37"/>
<path d="M24.8131 3.85893C25.8776 3.85893 26.7443 2.99611 26.7443 1.92749C26.7443 0.858859 25.8816 0 24.8131 0H14.5633C6.52184 0 0 6.52258 0 14.5689C0 22.6153 6.52184 29.1379 14.5673 29.1379H26.5345C27.5991 29.1379 28.4658 28.2751 28.4658 27.2064C28.4658 26.1378 27.603 25.275 26.5345 25.275H14.5673C8.65489 25.275 3.86245 20.482 3.86245 14.5689C3.86245 8.65587 8.65489 3.86289 14.5673 3.86289H24.817L24.8131 3.85893Z" fill="#303635"/>
<path d="M16.0473 9.94614C18.3427 6.96982 21.9439 5.0542 25.9924 5.0542H32.5459C40.5913 5.0542 47.1131 11.5768 47.1131 19.6231C47.1131 27.6695 40.5913 34.1921 32.5459 34.1921H14.5673C13.5027 34.1921 12.636 33.3293 12.636 32.2606C12.636 31.192 13.4988 30.3292 14.5673 30.3292H32.5459C38.4583 30.3292 43.2507 25.5362 43.2507 19.6231C43.2507 13.7101 38.4583 8.91709 32.5459 8.91709H29.9775L25.9884 8.92896C23.1984 8.92896 21.1089 10.3736 19.1262 12.2971H19.1302C18.774 12.7641 18.216 13.0649 17.5868 13.0649C16.5143 13.0649 15.6476 12.1982 15.6476 11.1256C15.6476 10.6823 15.798 10.2746 16.0473 9.94614Z" fill="#B4CE37"/>
<path d="M32.1106 18.9503C33.1435 18.9503 33.9785 18.1152 33.9785 17.0822C33.9785 16.0492 33.1435 15.2141 32.1106 15.2141H23.1272C19.9731 15.2141 17.7174 18.9503 17.7174 18.9503H32.1066H32.1106Z" fill="#303635"/>
<path d="M29.4234 23.9293C30.4563 23.9293 31.2913 23.0942 31.2913 22.0612C31.2913 21.0282 30.4563 20.1931 29.4234 20.1931H20.4401C17.286 20.1931 15.0303 23.9293 15.0303 23.9293H29.4195H29.4234Z" fill="#303635"/>
<path d="M34.8689 13.9476C35.9018 13.9476 36.7368 13.1124 36.7368 12.0794C36.7368 11.0464 35.9018 10.2113 34.8689 10.2113H25.8856C22.7315 10.2113 20.4758 13.9476 20.4758 13.9476H34.865H34.8689Z" fill="#303635"/>
</svg>
